<svg width="294" height="294" viewBox="0 0 294 294" fill="none" xmlns="http://www.w3.org/2000/svg">
<g opacity="0.1" clip-path="url(#clip0_114_54)">
<path d="M-0.000122403 147C-0.400122 66.8999 64.7999 0.499944 144.4 -5.55916e-05C227 -0.500056 293.2 64.2999 293.6 145.8C294 226.6 228.7 293 148.6 293.5C66.2999 294 0.399878 229.1 -0.000122403 147ZM142 251.4C142 242.6 143.2 234 141.5 226.1C140.5 221.7 134.7 218.3 131 214.5C128.6 212 126 209.6 123.5 207.1C91.3999 176.1 59.2999 145.1 27.1999 114.1C25.7999 112.8 24.5999 111.4 22.5999 109.2C75.0999 99.3999 114.2 116.7 141.7 161.4C142.2 150.1 141.8 139.2 142.3 128.3C142.5 122.8 140.2 119.6 136.1 116.8C127.2 110.8 117.1 108.2 106.9 105.7C97.1999 103.3 87.3999 100.9 79.3999 94.3999C73.0999 89.2999 68.4999 82.9999 67.1999 73.9999C77.2999 74.8999 86.7999 75.6999 97.4999 76.6999C85.2999 61.4999 80.4999 44.7999 82.1999 25.0999C78.1999 27.3999 75.3999 28.8999 72.5999 30.5999C55.9999 41.4999 41.9999 55.0999 31.1999 71.8999C12.9999 100.3 6.09988 131.3 10.1999 164.9C10.6999 169.3 12.5999 169.7 16.3999 169.5C40.9999 168.1 61.4999 176.3 76.7999 196.1C81.4999 202.2 85.5999 208.6 89.8999 215C96.7999 225.2 105.1 234 115.5 240.6C123.5 245.7 131.9 249.8 142 251.4ZM151.5 252.5C159.2 249.4 166.2 247.1 172.7 243.7C188.1 235.7 199 223 207.8 208.4C224 181.8 246.6 166.8 278.8 169.7C281.6 169.9 282.9 168.8 282.9 166.1C282.9 152.7 284.5 139 282.5 125.8C276.8 87.5999 257.4 57.1999 226.1 34.4999C221.7 31.2999 216.8 28.5999 212.5 25.9999C211.2 35.3999 210.9 44.3999 208.4 52.6999C205.9 61.0999 201.1 68.7999 197.3 76.7999C206.3 75.9999 215.9 75.1999 226 74.2999C224.5 83.7999 219.8 90.0999 213.1 95.1999C204.2 102 193.5 104.2 183 106.7C173.2 109 163.8 112 155.6 118.1C152.5 120.4 150.9 122.9 151.1 126.9C151.4 132.4 151.2 137.9 151.2 143.4C151.2 149.5 151.2 155.5 151.2 161.6C151.6 161.8 152 161.9 152.3 162.1C163.6 141 179.8 125 201.6 115.3C223.6 105.5 246.3 103.9 269.1 109.6C263.3 115.7 257.8 122 251.9 127.8C219.3 159.5 186.5 191 153.9 222.7C152.7 223.9 151.3 225.7 151.3 227.2C151.4 234.9 151.5 242.9 151.5 252.5ZM170.5 83.6999C192.3 75.3999 206.4 47.3999 201.7 24.3999C201 20.9999 199.4 19.2999 196.3 18.1999C163.1 5.99995 129.9 5.89994 96.6999 18.3999C93.4999 19.5999 92.2999 21.4999 91.7999 24.4999C89.3999 38.8999 92.0999 52.3999 100.2 64.5999C105.6 72.7999 112.6 79.4999 122 83.2999C121.8 82.1999 121.4 81.2999 120.8 80.6999C109 67.4999 103.3 51.8999 101.8 34.4999C101.2 27.2999 102.5 25.8999 110.5 25.8999C110.4 45.2999 116.6 62.5999 129.9 78.7999C129.5 76.5999 129.5 75.7999 129.2 75.0999C123.3 60.3999 121.3 44.8999 120.4 29.2999C119.9 21.6999 121.3 20.3999 129.4 21.9999C129.9 41.2999 131.7 60.4999 141.5 77.8999C142.2 76.0999 142.2 74.2999 142.2 72.5999C142.2 56.5999 142.3 40.5999 142.2 24.5999C142.2 21.3999 142.3 19.2999 146.6 19.2999C150.7 19.2999 151.7 20.6999 151.6 24.5999C151.4 41.0999 151.6 57.5999 151.6 74.0999C151.6 75.3999 151.9 76.6999 152 77.9999C162.1 60.3999 163.6 41.1999 164.4 21.9999C171.6 20.7999 173.7 21.8999 173.5 26.6999C172.6 42.7999 171 58.8999 164.9 74.0999C164.5 75.0999 164.4 76.1999 164.1 77.1999C177.2 62.3999 183.3 44.9999 183.4 24.6999C187.1 26.9999 192.6 25.3999 192.3 30.7999C191.1 47.6999 187.1 63.6999 176 77.0999C174.2 78.7999 172.8 80.6999 170.5 83.6999ZM142.2 272.2C142.2 269.9 142.1 267.5 142.2 265.2C142.4 262.5 141.6 261.1 138.6 260.4C113 254.1 93.0999 239.4 80.2999 216.7C70.6999 199.6 41.2999 201.7 31.7999 214.7C29.9999 217.2 29.1999 219.1 31.2999 221.7C33.8999 224.9 36.2999 228.4 38.5999 231.8C40.1999 234.2 41.8999 234.3 44.4999 233.4C68.0999 225.2 88.9999 241.7 86.1999 266.6C85.8999 269.2 86.2999 270.5 88.6999 271.6C101.8 277.5 115.4 281.8 129.8 283.2C142.2 284.3 142.2 284.2 142.2 272.2ZM151.5 284.1C169.9 283.5 186.4 279.4 202.3 272.7C206.2 271.1 207.6 269.2 207.2 264.6C205.4 243.1 223.8 227.1 244.1 231.8C253.4 234 253.4 234 259.2 225.8C260.1 224.6 260.8 223.2 261.8 222.1C264.3 219.3 263.5 217.1 261.4 214.3C251.7 201.5 222.2 199.9 212.9 217C200.3 239.9 180.1 254.2 154.6 260.6C153.4 260.9 151.6 262.2 151.6 263C151.4 269.8 151.5 276.6 151.5 284.1ZM57.2999 116.7C92.8999 134.5 121.1 160 141 196.2C137.5 152.9 96.6999 116.7 57.2999 116.7ZM152.9 195.5C172.7 159.6 201 134.5 236.9 116.8C204.5 109.6 150.5 160 152.9 195.5ZM238.4 128.2C213.5 134.3 163.9 182.5 161.6 202.4C187.5 177.3 212.9 152.8 238.4 128.2ZM56.2999 127.1C55.8999 127.5 55.5999 127.9 55.1999 128.3C80.5999 152.9 106.1 177.4 131.5 202C131.9 201.6 132.3 201.2 132.7 200.8C115.3 167.9 89.3999 143.9 56.2999 127.1ZM76.3999 265.8C78.7999 257.6 75.5999 249.5 69.1999 244.6C62.9999 239.8 54.6999 238.9 47.3999 243.1C57.0999 250.7 66.3999 258 76.3999 265.8ZM246.2 242.9C237.9 238.6 229.5 240 223.1 245.7C217.5 250.6 214.8 258.5 217.4 265.5C227 258 236.2 250.8 246.2 242.9ZM126.1 98.8999C113.8 89.2999 99.3999 86.4999 84.3999 85.5999C96.3999 95.8999 111 98.1999 126.1 98.8999ZM209.2 85.4999C194.2 86.5999 179.7 89.0999 167.5 98.9999C182.6 98.0999 197.2 95.9999 209.2 85.4999ZM57.2999 194C44.0999 190.3 31.7999 192.5 19.4999 199.2C21.0999 202.7 22.4999 205.6 23.9999 208.6C40.1999 195.9 38.3999 197.6 57.2999 194ZM273.8 199.5C262.8 192.1 242.4 189.5 235.8 195C249 195 260.2 199.1 269.3 209.1C271.1 205.4 272.4 202.5 273.8 199.5ZM251.2 181.9C260.4 184.5 268.7 186.8 277.6 189.3C278.5 186.2 279.4 182.8 280.5 178.9C270.1 178.3 260.9 178.3 251.2 181.9ZM12.9999 179C14.0999 183 15.0999 186.5 15.8999 189.3C25.0999 186.7 33.2999 184.5 42.5999 181.9C32.7999 178.5 23.3999 178.2 12.9999 179Z" fill="white"/>
</g>
<defs>
<clipPath id="clip0_114_54">
<rect width="293.6" height="293.5" fill="white"/>
</clipPath>
</defs>
</svg>
