<svg width="40" height="40" viewBox="0 0 40 40" fill="none" xmlns="http://www.w3.org/2000/svg">
<g clip-path="url(#clip0_134_42)">
<path d="M-0.000238864 20.0338C-0.0547348 9.1173 8.8281 0.0678987 19.6728 -0.000244401C30.9262 -0.0683875 39.9453 8.76296 39.9998 19.8703C40.0543 30.8822 31.1578 39.9316 20.245 39.9998C9.03246 40.0679 0.0542571 31.2229 -0.000238864 20.0338ZM19.3458 34.2621C19.3458 33.0628 19.5093 31.8907 19.2777 30.8141C19.1415 30.2144 18.3513 29.751 17.8472 29.2331C17.5202 28.8924 17.166 28.5653 16.8254 28.2246C12.4521 23.9998 8.07878 19.7749 3.70548 15.55C3.51475 15.3728 3.35126 15.182 3.07878 14.8822C10.2314 13.5466 15.5583 15.9044 19.3049 21.9963C19.3731 20.4563 19.3186 18.9708 19.3867 17.4853C19.4139 16.7357 19.1006 16.2996 18.542 15.918C17.3295 15.1003 15.9534 14.7459 14.5638 14.4052C13.2423 14.0781 11.9071 13.751 10.8172 12.8652C9.95889 12.1701 9.33219 11.3115 9.15508 10.0849C10.5311 10.2076 11.8254 10.3166 13.2831 10.4529C11.621 8.38136 10.9671 6.10538 11.1987 3.42054C10.6537 3.734 10.2722 3.93843 9.89077 4.17011C7.62919 5.65563 5.72183 7.50913 4.25044 9.79873C1.77088 13.6693 0.830824 17.8941 1.38941 22.4733C1.45753 23.073 1.71638 23.1275 2.23409 23.1003C5.58559 22.9095 8.37851 24.027 10.463 26.7255C11.1033 27.5568 11.6619 28.4291 12.2477 29.3013C13.1878 30.6914 14.3186 31.8907 15.7355 32.7902C16.8254 33.4853 17.9698 34.044 19.3458 34.2621ZM20.6401 34.412C21.6891 33.9895 22.6428 33.6761 23.5284 33.2127C25.6265 32.1224 27.1115 30.3916 28.3104 28.4018C30.5175 24.7766 33.5965 22.7323 37.9834 23.1275C38.3649 23.1548 38.542 23.0049 38.542 22.6369C38.542 20.8107 38.76 18.9435 38.4875 17.1446C37.7109 11.9384 35.0679 7.79533 30.8036 4.70163C30.2041 4.26551 29.5366 3.89754 28.9507 3.5432C28.7736 4.82429 28.7327 6.05086 28.3921 7.18204C28.0515 8.32684 27.3976 9.37625 26.8799 10.4665C28.106 10.3575 29.4139 10.2485 30.79 10.1258C30.5856 11.4205 29.9453 12.2791 29.0325 12.9742C27.8199 13.9009 26.3622 14.2008 24.9316 14.5415C23.5965 14.855 22.3158 15.2638 21.1987 16.0952C20.7763 16.4086 20.5583 16.7493 20.5856 17.2945C20.6265 18.044 20.5992 18.7936 20.5992 19.5432C20.5992 20.3745 20.5992 21.1923 20.5992 22.0236C20.6537 22.0509 20.7082 22.0645 20.7491 22.0917C22.2886 19.2161 24.4957 17.0355 27.4657 15.7136C30.463 14.378 33.5556 14.1599 36.6619 14.9367C35.8717 15.7681 35.1224 16.6267 34.3186 17.4171C29.8772 21.7374 25.4085 26.0304 20.9671 30.3507C20.8036 30.5142 20.6128 30.7596 20.6128 30.964C20.6265 32.0134 20.6401 33.1037 20.6401 34.412ZM23.2287 11.4069C26.1987 10.2757 28.1197 6.45972 27.4793 3.32514C27.384 2.86177 27.166 2.63008 26.7436 2.48016C22.2205 0.817473 17.6973 0.803844 13.1742 2.50742C12.7382 2.67097 12.5747 2.92991 12.5066 3.33877C12.1796 5.30129 12.5474 7.14115 13.651 8.80384C14.3867 9.92139 15.3404 10.8345 16.621 11.3524C16.5938 11.2025 16.5393 11.0798 16.4575 10.9981C14.8499 9.19907 14.0733 7.07301 13.869 4.70163C13.7872 3.72037 13.9643 3.52957 15.0543 3.52957C15.0406 6.17352 15.8853 8.53127 17.6973 10.7391C17.6428 10.4393 17.6428 10.3303 17.6019 10.2348C16.7981 8.23144 16.5257 6.11901 16.403 3.99294C16.3349 2.95717 16.5256 2.77999 17.6292 2.99805C17.6973 5.62838 17.9425 8.24507 19.2777 10.6165C19.3731 10.3711 19.3731 10.1258 19.3731 9.89413C19.3731 7.71355 19.3867 5.53298 19.3731 3.3524C19.3731 2.91628 19.3867 2.63008 19.9725 2.63008C20.5311 2.63008 20.6673 2.82088 20.6537 3.3524C20.6265 5.60112 20.6537 7.84984 20.6537 10.0986C20.6537 10.2757 20.6946 10.4529 20.7082 10.6301C22.0842 8.23144 22.2886 5.61475 22.3976 2.99805C23.3785 2.83451 23.6646 2.98442 23.6374 3.6386C23.5148 5.83281 23.2968 8.02701 22.4657 10.0986C22.4112 10.2348 22.3976 10.3848 22.3567 10.5211C24.1415 8.50401 24.9725 6.13263 24.9861 3.36603C25.4902 3.67948 26.2395 3.46143 26.1987 4.19737C26.0352 6.50061 25.4902 8.68119 23.978 10.5074C23.7327 10.7391 23.542 10.9981 23.2287 11.4069ZM19.3731 37.0969C19.3731 36.7834 19.3594 36.4563 19.3731 36.1429C19.4003 35.7749 19.2913 35.5841 18.8826 35.4887C15.3949 34.6301 12.6837 32.6267 10.9398 29.533C9.63192 27.2025 5.62647 27.4887 4.33219 29.2604C4.08696 29.6011 3.97796 29.8601 4.26407 30.2144C4.61829 30.6505 4.94527 31.1275 5.25862 31.5909C5.4766 31.918 5.70821 31.9316 6.06243 31.809C9.27769 30.6914 12.1251 32.9401 11.7436 36.3337C11.7028 36.688 11.7573 36.8652 12.0842 37.0151C13.869 37.8192 15.7218 38.4052 17.6837 38.596C19.3731 38.7459 19.3731 38.7323 19.3731 37.0969ZM20.6401 38.7187C23.1469 38.6369 25.3949 38.0781 27.5611 37.165C28.0924 36.9469 28.2831 36.688 28.2286 36.0611C27.9834 33.1309 30.4902 30.9504 33.2559 31.5909C34.5229 31.8907 34.5229 31.8907 35.3131 30.7732C35.4357 30.6096 35.5311 30.4188 35.6673 30.2689C36.0079 29.8873 35.899 29.5875 35.6128 29.2059C34.2913 27.4614 30.2722 27.2434 29.0052 29.5739C27.2886 32.6948 24.5366 34.6437 21.0624 35.5159C20.8989 35.5568 20.6537 35.734 20.6537 35.843C20.6265 36.7698 20.6401 37.6965 20.6401 38.7187ZM7.8063 15.9044C12.6564 18.3303 16.4984 21.8055 19.2096 26.7391C18.7327 20.8379 13.1742 15.9044 7.8063 15.9044ZM20.8308 26.6437C23.5284 21.751 27.384 18.3303 32.275 15.918C27.8608 14.9367 20.5039 21.8055 20.8308 26.6437ZM32.4793 17.4716C29.087 18.303 22.3295 24.872 22.0161 27.5841C25.5447 24.1633 29.0052 20.8243 32.4793 17.4716ZM7.67006 17.3217C7.61557 17.3762 7.57469 17.4308 7.5202 17.4853C10.9807 20.8379 14.4548 24.1769 17.9153 27.5296C17.9698 27.4751 18.0243 27.4205 18.0788 27.366C15.7082 22.8822 12.1796 19.6113 7.67006 17.3217ZM10.4085 36.2246C10.7355 35.1071 10.2995 34.0032 9.42756 33.3354C8.58287 32.6812 7.45208 32.5585 6.45753 33.1309C7.77905 34.1667 9.04609 35.1616 10.4085 36.2246ZM33.542 33.1037C32.4112 32.5176 31.2668 32.7084 30.3949 33.4853C29.6319 34.1531 29.2641 35.2297 29.6183 36.1837C30.9262 35.1616 32.1796 34.1803 33.542 33.1037ZM17.1796 13.4785C15.5039 12.1701 13.542 11.7885 11.4984 11.6659C13.1333 13.0696 15.1224 13.3831 17.1796 13.4785ZM28.5011 11.6522C26.4575 11.8021 24.4821 12.1429 22.8199 13.4921C24.8772 13.3694 26.8663 13.0832 28.5011 11.6522ZM7.8063 26.4393C6.00794 25.935 4.33219 26.2348 2.65644 27.148C2.87442 27.625 3.06516 28.0202 3.26952 28.4291C5.4766 26.6982 5.23137 26.9299 7.8063 26.4393ZM37.3022 27.1889C35.8036 26.1803 33.0243 25.826 32.1251 26.5756C33.9235 26.5756 35.4494 27.1343 36.6891 28.4972C36.9344 27.9929 37.1115 27.5977 37.3022 27.1889ZM34.2232 24.7902C35.4766 25.1446 36.6074 25.458 37.8199 25.7987C37.9426 25.3762 38.0652 24.9129 38.215 24.3814C36.7981 24.2996 35.5447 24.2996 34.2232 24.7902ZM1.77088 24.395C1.92074 24.9401 2.05698 25.4171 2.16597 25.7987C3.41938 25.4444 4.53655 25.1446 5.80358 24.7902C4.46843 24.3268 3.18777 24.286 1.77088 24.395Z" fill="white"/>
</g>
<defs>
<clipPath id="clip0_134_42">
<rect width="40" height="40" fill="white"/>
</clipPath>
</defs>
</svg>
