<svg width="446" height="446" viewBox="0 0 446 446" fill="none" xmlns="http://www.w3.org/2000/svg">
<g opacity="0.05" clip-path="url(#clip0_130_42)">
<path d="M-2.6616e-05 223.38C-0.607656 101.661 98.4359 0.759769 219.354 -2.70801e-05C344.83 -0.759823 445.392 97.7097 446 221.556C446.608 344.339 347.412 445.24 225.734 446C100.715 446.76 0.607603 348.138 -2.6616e-05 223.38ZM215.708 382.025C215.708 368.653 217.531 355.584 214.949 343.58C213.43 336.893 204.619 331.727 198.999 325.952C195.353 322.153 191.403 318.506 187.606 314.707C138.843 267.6 90.081 220.493 41.3188 173.385C39.1921 171.41 37.3692 169.282 34.331 165.939C114.082 151.047 173.478 177.336 215.253 245.262C216.012 228.091 215.405 211.527 216.164 194.964C216.468 186.606 212.974 181.743 206.746 177.488C193.226 168.371 177.883 164.42 162.389 160.621C147.654 156.974 132.767 153.327 120.614 143.449C111.044 135.699 104.057 126.126 102.082 112.45C117.424 113.817 131.856 115.033 148.11 116.553C129.577 93.4548 122.285 68.0777 124.868 38.1417C118.792 41.6368 114.538 43.9162 110.285 46.4995C85.0681 63.063 63.8011 83.7295 47.3951 109.259C19.7479 152.415 9.26632 199.522 15.4945 250.581C16.2541 257.267 19.1403 257.875 24.9128 257.571C62.282 255.443 93.423 267.904 116.665 297.992C123.804 307.261 130.033 316.987 136.565 326.712C147.046 342.212 159.655 355.584 175.453 365.614C187.606 373.364 200.366 379.594 215.708 382.025ZM230.14 383.697C241.836 378.986 252.47 375.491 262.344 370.324C285.738 358.168 302.296 338.869 315.663 316.683C340.272 276.262 374.603 253.468 423.518 257.875C427.771 258.179 429.746 256.507 429.746 252.404C429.746 232.042 432.176 211.223 429.138 191.165C420.48 133.116 391.009 86.9206 343.462 52.4259C336.779 47.5632 329.335 43.4603 322.803 39.5093C320.828 53.7935 320.373 67.4698 316.575 80.0824C312.777 92.847 305.486 104.548 299.713 116.705C313.385 115.489 327.968 114.273 343.311 112.906C341.032 127.342 333.892 136.915 323.715 144.665C310.195 154.998 293.941 158.341 277.99 162.14C263.103 165.635 248.824 170.194 236.368 179.464C231.659 182.959 229.228 186.758 229.532 192.836C229.988 201.194 229.684 209.552 229.684 217.909C229.684 227.179 229.684 236.296 229.684 245.566C230.292 245.87 230.899 246.022 231.355 246.326C248.52 214.262 273.129 189.949 306.245 175.209C339.665 160.317 374.148 157.885 408.783 166.547C399.972 175.817 391.617 185.39 382.655 194.204C333.133 242.375 283.307 290.242 233.785 338.413C231.962 340.236 229.836 342.972 229.836 345.251C229.988 356.952 230.14 369.109 230.14 383.697ZM259.002 127.19C292.118 114.577 313.537 72.0286 306.397 37.078C305.334 31.9114 302.903 29.3281 298.194 27.6565C247.761 9.11752 197.328 8.96556 146.894 27.9605C142.033 29.784 140.21 32.6712 139.451 37.23C135.805 59.1121 139.907 79.6266 152.211 98.1656C160.414 110.626 171.048 120.807 185.327 126.582C185.023 124.91 184.416 123.543 183.504 122.631C165.579 102.572 156.92 78.8668 154.642 52.4259C153.73 41.4848 155.705 39.3574 167.858 39.3574C167.706 68.8375 177.124 95.1264 197.328 119.744C196.72 116.401 196.72 115.185 196.264 114.121C187.302 91.7833 184.264 68.2296 182.896 44.524C182.137 32.9751 184.264 30.9996 196.568 33.431C197.328 62.7591 200.062 91.9352 214.949 118.376C216.012 115.641 216.012 112.906 216.012 110.322C216.012 86.0088 216.164 61.6954 216.012 37.3819C216.012 32.5192 216.164 29.3281 222.696 29.3281C228.924 29.3281 230.443 31.4555 230.292 37.3819C229.988 62.4552 230.292 87.5284 230.292 112.602C230.292 114.577 230.747 116.553 230.899 118.528C246.242 91.7833 248.52 62.6071 249.736 33.431C260.673 31.6075 263.863 33.279 263.559 40.5731C262.192 65.0385 259.762 89.5039 250.495 112.602C249.888 114.121 249.736 115.793 249.28 117.312C269.18 94.8225 278.446 68.3816 278.598 37.5339C284.219 41.0289 292.574 38.5976 292.118 46.8034C290.295 72.4845 284.219 96.7979 267.357 117.16C264.623 119.744 262.496 122.631 259.002 127.19ZM216.012 413.633C216.012 410.138 215.86 406.491 216.012 402.996C216.316 398.893 215.101 396.765 210.544 395.702C171.655 386.128 141.426 363.79 121.982 329.295C107.398 303.31 62.7377 306.502 48.3065 326.256C45.5722 330.055 44.3569 332.942 47.547 336.893C51.4966 341.756 55.1423 347.075 58.6362 352.241C61.0667 355.888 63.6492 356.04 67.5987 354.673C103.449 342.212 135.198 367.285 130.944 405.123C130.488 409.074 131.096 411.049 134.742 412.721C154.642 421.687 175.301 428.221 197.176 430.348C216.012 432.02 216.012 431.868 216.012 413.633ZM230.14 431.716C258.091 430.804 283.155 424.574 307.309 414.393C313.233 411.961 315.36 409.074 314.752 402.084C312.018 369.413 339.969 345.099 370.806 352.241C384.933 355.584 384.933 355.584 393.744 343.124C395.111 341.3 396.174 339.173 397.693 337.501C401.491 333.246 400.276 329.903 397.086 325.648C382.351 306.198 337.538 303.766 323.411 329.751C304.27 364.55 273.585 386.28 234.849 396.005C233.026 396.461 230.292 398.437 230.292 399.652C229.988 409.986 230.14 420.319 230.14 431.716ZM87.0429 177.336C141.122 204.385 183.96 243.135 214.189 298.144C208.873 232.345 146.894 177.336 87.0429 177.336ZM232.266 297.08C262.344 242.527 305.334 204.385 359.868 177.488C310.65 166.547 228.621 243.135 232.266 297.08ZM362.147 194.812C324.322 204.081 248.976 277.325 245.482 307.565C284.826 269.423 323.411 232.193 362.147 194.812ZM85.5238 193.14C84.9162 193.748 84.4605 194.356 83.8528 194.964C122.437 232.345 161.174 269.575 199.758 306.957C200.366 306.35 200.973 305.742 201.581 305.134C175.149 255.139 135.805 218.669 85.5238 193.14ZM116.057 403.907C119.703 391.447 114.842 379.138 105.12 371.692C95.7016 364.398 83.0933 363.03 72.0041 369.413C86.7391 380.961 100.866 392.054 116.057 403.907ZM373.996 369.109C361.388 362.574 348.627 364.702 338.905 373.364C330.398 380.81 326.297 392.814 330.247 403.451C344.83 392.055 358.805 381.113 373.996 369.109ZM191.555 150.288C172.871 135.699 150.996 131.445 128.21 130.077C146.439 145.729 168.617 149.224 191.555 150.288ZM317.79 129.925C295.004 131.597 272.977 135.396 254.445 150.439C277.383 149.072 299.561 145.881 317.79 129.925ZM87.0429 294.801C66.9911 289.178 48.3065 292.521 29.6219 302.703C32.0524 308.021 34.1791 312.428 36.4577 316.987C61.0667 297.688 58.3324 300.271 87.0429 294.801ZM415.922 303.158C399.212 291.913 368.223 287.962 358.198 296.32C378.249 296.32 395.263 302.551 409.086 317.746C411.821 312.124 413.796 307.717 415.922 303.158ZM381.591 276.414C395.567 280.365 408.175 283.86 421.695 287.659C423.062 282.948 424.429 277.781 426.1 271.855C410.302 270.943 396.326 270.943 381.591 276.414ZM19.7479 272.007C21.4189 278.085 22.938 283.404 24.1532 287.659C38.1287 283.708 50.5851 280.365 64.7125 276.414C49.8256 271.247 35.5463 270.791 19.7479 272.007Z" fill="white"/>
</g>
<defs>
<clipPath id="clip0_130_42">
<rect width="446" height="446" fill="white"/>
</clipPath>
</defs>
</svg>
