<svg width="147" height="294" viewBox="0 0 147 294" fill="none" xmlns="http://www.w3.org/2000/svg">
<path fill-rule="evenodd" clip-rule="evenodd" d="M146.602 293.496C146.069 293.498 145.536 293.497 145.002 293.494C64.9018 292.994 -0.398166 226.594 0.00182787 145.794C0.39761 65.1511 65.2169 0.858764 146.602 0V9.03223C130.168 9.08124 113.735 12.1554 97.3018 18.1942C94.2018 19.2942 92.6018 20.9942 91.9018 24.3942C87.2018 47.3942 101.302 75.3942 123.102 83.6942C122.881 83.4061 122.668 83.1281 122.463 82.8595C120.529 80.3311 119.229 78.6309 117.602 77.0942C106.502 63.6942 102.502 47.6942 101.302 30.7942C101.104 27.2379 103.422 26.7176 106.085 26.12C107.465 25.8101 108.939 25.4795 110.202 24.6942C110.302 44.9942 116.402 62.3942 129.502 77.1942C129.38 76.7864 129.29 76.362 129.201 75.9346C129.07 75.3137 128.939 74.6864 128.702 74.0942C122.602 58.8942 121.002 42.7942 120.102 26.6942C119.902 21.8942 122.002 20.7942 129.202 21.9942C130.002 41.1942 131.502 60.3942 141.602 77.9942C141.642 77.4742 141.714 76.9541 141.786 76.4341C141.894 75.6541 142.002 74.8742 142.002 74.0942C142.002 68.5942 142.024 63.0942 142.046 57.5942C142.091 46.5942 142.135 35.5942 142.002 24.5942C141.905 20.8243 142.836 19.3904 146.602 19.2989V293.496ZM135.533 249.937C137.666 250.752 139.854 251.589 142.102 252.494C142.102 242.894 142.202 234.894 142.302 227.194C142.302 225.694 140.902 223.894 139.702 222.694C123.402 206.844 107.052 191.044 90.7018 175.244C74.3518 159.444 58.0018 143.644 41.7018 127.794C37.926 124.082 34.3139 120.166 30.6822 116.228C28.6392 114.012 26.59 111.79 24.5018 109.594C47.3018 103.894 70.0018 105.494 92.0018 115.294C113.802 124.994 130.002 140.994 141.302 162.094C141.477 161.978 141.685 161.895 141.908 161.807C142.068 161.744 142.235 161.678 142.402 161.594V143.394C142.402 141.823 142.386 140.251 142.369 138.68C142.328 134.751 142.288 130.823 142.502 126.894C142.702 122.894 141.102 120.394 138.002 118.094C129.802 111.994 120.402 108.994 110.602 106.694C109.923 106.533 109.244 106.372 108.564 106.212C98.7262 103.891 88.8266 101.555 80.5018 95.1942C73.8018 90.0942 69.1018 83.7942 67.6018 74.2942C72.8949 74.7658 78.0506 75.21 83.0547 75.6412C87.5991 76.0327 92.0184 76.4134 96.3018 76.7942C95.1519 74.3732 93.9104 71.9798 92.6687 69.5861C89.8073 64.0698 86.9453 58.5522 85.2018 52.6942C83.4418 46.8508 82.7722 40.6604 82.0763 34.2278C81.7838 31.5235 81.4866 28.7764 81.1018 25.9942C80.0602 26.624 78.9833 27.2597 77.8869 27.907C74.4572 29.9316 70.836 32.0693 67.5018 34.4942C36.2018 57.1942 16.8018 87.5942 11.1018 125.794C9.71646 134.938 10.0584 144.321 10.3994 153.678C10.5507 157.83 10.7018 161.976 10.7018 166.094C10.7018 168.794 12.0019 169.894 14.8018 169.694C47.0018 166.794 69.6018 181.794 85.8018 208.394C94.6018 222.994 105.502 235.694 120.902 243.694C125.504 246.102 130.358 247.958 135.533 249.937ZM91.3018 272.694C107.202 279.394 123.702 283.494 142.102 284.094C142.102 282.185 142.108 280.322 142.115 278.492C142.133 273.133 142.151 268.063 142.002 262.994C142.002 262.194 140.202 260.894 139.002 260.594C113.502 254.194 93.3018 239.894 80.7018 216.994C71.4018 199.894 41.9018 201.494 32.2018 214.294C30.1018 217.094 29.3018 219.294 31.8018 222.094C32.4019 222.754 32.8939 223.522 33.3859 224.29C33.7138 224.802 34.0418 225.314 34.4018 225.794C37.3567 229.972 38.8062 232.021 40.747 232.735C42.6157 233.423 44.9399 232.873 49.5018 231.794C69.8018 227.094 88.2018 243.094 86.4018 264.594C86.0018 269.194 87.4018 271.094 91.3018 272.694ZM140.702 195.494C120.902 159.594 92.6018 134.494 56.7018 116.794C89.1018 109.594 143.102 159.994 140.702 195.494ZM132.002 202.394C129.702 182.494 80.1018 134.294 55.2018 128.194L57.4122 130.326C82.1702 154.211 106.85 178.019 132.002 202.394ZM70.5018 245.694C64.1018 239.994 55.7018 238.594 47.4018 242.894C57.4018 250.794 66.6018 257.994 76.2018 265.494C78.8018 258.494 76.1018 250.594 70.5018 245.694ZM84.4018 85.4942C99.4018 86.5942 113.902 89.0942 126.102 98.9942C111.002 98.0942 96.4018 95.9942 84.4018 85.4942ZM57.8018 194.994C51.2018 189.494 30.8018 192.094 19.8018 199.494C20.21 200.369 20.6096 201.235 21.0157 202.115C22.0023 204.253 23.0266 206.473 24.3018 209.094C33.4019 199.094 44.6018 194.994 57.8018 194.994ZM26.4904 186.358C31.6862 184.906 36.882 183.454 42.4018 181.894C32.7018 178.294 23.5018 178.294 13.1018 178.894C13.5756 180.574 14.0122 182.16 14.4277 183.67C14.977 185.667 15.4894 187.529 16.0018 189.294C19.562 188.294 23.0262 187.326 26.4904 186.358Z" fill="white" fill-opacity="0.1"/>
</svg>
