<svg width="147" height="294" viewBox="0 0 147 294" fill="none" xmlns="http://www.w3.org/2000/svg">
<path fill-rule="evenodd" clip-rule="evenodd" d="M0.00195312 293.496C0.534546 293.498 1.06784 293.497 1.60184 293.494C81.7018 292.994 147.002 226.594 146.602 145.794C146.206 65.1511 81.3867 0.858764 0.00195312 0V9.03223C16.4352 9.08124 32.8685 12.1554 49.3018 18.1942C52.4018 19.2942 54.0018 20.9942 54.7018 24.3942C59.4018 47.3942 45.3018 75.3942 23.5018 83.6942C23.7227 83.4061 23.9353 83.1281 24.1407 82.8595C26.0744 80.3311 27.3747 78.6309 29.0018 77.0942C40.1018 63.6942 44.1018 47.6942 45.3018 30.7942C45.4994 27.2379 43.1814 26.7176 40.5187 26.12C39.1382 25.8101 37.6651 25.4795 36.4018 24.6942C36.3018 44.9942 30.2018 62.3942 17.1018 77.1942C17.2242 76.7864 17.3132 76.362 17.403 75.9346C17.5333 75.3137 17.6649 74.6864 17.9018 74.0942C24.0018 58.8942 25.6018 42.7942 26.5018 26.6942C26.7018 21.8942 24.6018 20.7942 17.4018 21.9942C16.6018 41.1942 15.1018 60.3942 5.00183 77.9942C4.96184 77.4742 4.88983 76.9541 4.81783 76.4341C4.70982 75.6541 4.60184 74.8742 4.60184 74.0942C4.60184 68.5942 4.57962 63.0942 4.5574 57.5942C4.51295 46.5942 4.46851 35.5942 4.60184 24.5942C4.6985 20.8243 3.76735 19.3904 0.00195312 19.2989V293.496ZM11.0711 249.937C8.93768 250.752 6.74959 251.589 4.50183 252.494C4.50183 242.894 4.40184 234.894 4.30183 227.194C4.30183 225.694 5.70183 223.894 6.90182 222.694C23.2018 206.844 39.5518 191.044 55.9019 175.244C72.2518 159.444 88.6018 143.644 104.902 127.794C108.678 124.082 112.29 120.166 115.921 116.228C117.964 114.012 120.014 111.79 122.102 109.594C99.3018 103.894 76.6018 105.494 54.6018 115.294C32.8018 124.994 16.6018 140.994 5.30183 162.094C5.12704 161.978 4.91833 161.895 4.69543 161.807C4.53575 161.744 4.36879 161.678 4.20183 161.594V143.394C4.20183 141.823 4.21815 140.251 4.23448 138.68C4.2753 134.751 4.31612 130.823 4.10184 126.894C3.90184 122.894 5.50185 120.394 8.60184 118.094C16.8018 111.994 26.2018 108.994 36.0018 106.694C36.6805 106.533 37.3599 106.372 38.0397 106.212C47.8774 103.891 57.7771 101.555 66.1018 95.1942C72.8018 90.0942 77.5018 83.7942 79.0018 74.2942C73.7088 74.7658 68.553 75.21 63.549 75.6412C59.0046 76.0327 54.5852 76.4134 50.3018 76.7942C51.4518 74.3732 52.6933 71.9798 53.9349 69.5861C56.7963 64.0698 59.6584 58.5522 61.4018 52.6942C63.1619 46.8508 63.8315 40.6604 64.5274 34.2278C64.8199 31.5235 65.1171 28.7764 65.5018 25.9942C66.5435 26.624 67.6203 27.2597 68.7168 27.907C72.1465 29.9316 75.7677 32.0693 79.1018 34.4942C110.402 57.1942 129.802 87.5942 135.502 125.794C136.887 134.938 136.545 144.321 136.204 153.678C136.053 157.83 135.902 161.976 135.902 166.094C135.902 168.794 134.602 169.894 131.802 169.694C99.6018 166.794 77.0018 181.794 60.8018 208.394C52.0018 222.994 41.1018 235.694 25.7018 243.694C21.0993 246.102 16.246 247.958 11.0711 249.937ZM55.3018 272.694C39.4018 279.394 22.9018 283.494 4.50183 284.094C4.50183 282.185 4.49535 280.322 4.48898 278.492C4.47037 273.133 4.45274 268.063 4.60184 262.994C4.60184 262.194 6.40184 260.894 7.60184 260.594C33.1018 254.194 53.3018 239.894 65.9018 216.994C75.2018 199.894 104.702 201.494 114.402 214.294C116.502 217.094 117.302 219.294 114.802 222.094C114.202 222.754 113.71 223.522 113.218 224.29C112.89 224.802 112.562 225.314 112.202 225.794C109.247 229.972 107.797 232.021 105.857 232.735C103.988 233.423 101.664 232.873 97.1018 231.794C76.8018 227.094 58.4018 243.094 60.2018 264.594C60.6018 269.194 59.2018 271.094 55.3018 272.694ZM5.90182 195.494C25.7018 159.594 54.0018 134.494 89.9018 116.794C57.5018 109.594 3.50183 159.994 5.90182 195.494ZM14.6018 202.394C16.9018 182.494 66.5018 134.294 91.4018 128.194L89.1915 130.326C64.4335 154.211 39.7534 178.019 14.6018 202.394ZM76.1018 245.694C82.5018 239.994 90.9018 238.594 99.2018 242.894C89.2018 250.794 80.0018 257.994 70.4018 265.494C67.8018 258.494 70.5018 250.594 76.1018 245.694ZM62.2018 85.4942C47.2018 86.5942 32.7018 89.0942 20.5018 98.9942C35.6018 98.0942 50.2018 95.9942 62.2018 85.4942ZM88.8018 194.994C95.4018 189.494 115.802 192.094 126.802 199.494C126.394 200.369 125.994 201.235 125.588 202.115C124.601 204.253 123.577 206.473 122.302 209.094C113.202 199.094 102.002 194.994 88.8018 194.994ZM120.113 186.358C114.917 184.906 109.722 183.454 104.202 181.894C113.902 178.294 123.102 178.294 133.502 178.894C133.028 180.574 132.591 182.16 132.176 183.67C131.627 185.667 131.114 187.529 130.602 189.294C127.042 188.294 123.577 187.326 120.113 186.358Z" fill="white" fill-opacity="0.1"/>
</svg>
